<svg xmlns="http://www.w3.org/2000/svg" width="48.677" height="50.381" viewBox="0 0 48.677 50.381">
  <g id="daily-profits-icon" transform="translate(-16.962 -16.776)">
    <g id="icon" transform="translate(-9 -8.014)">
      <g id="coin-hand" transform="translate(25.961 24.79)">
        <path id="Path_5909" data-name="Path 5909" d="M673.223,67.412a1.715,1.715,0,0,0-1.084-1.543,6.869,6.869,0,0,0-.815-.305c-.16-.053-.32-.1-.478-.163a2.691,2.691,0,0,1-1.895-2.486,2.6,2.6,0,0,1,2.136-2.55v-.685H672v.685a2.6,2.6,0,0,1,2.136,2.55v.152h-.915v-.152a1.678,1.678,0,1,0-3.356,0,1.639,1.639,0,0,0,.643,1.291,4.2,4.2,0,0,0,1.231.549c.131.042.261.085.388.13a3.011,3.011,0,0,1,1.418.9A2.572,2.572,0,0,1,672,69.962v.685h-.915v-.686a2.6,2.6,0,0,1-2.136-2.511l0-.155h.915l0,.15a1.678,1.678,0,0,0,3.356-.034Zm-1.679,10.97a13.218,13.218,0,1,0-13.219-13.218A13.233,13.233,0,0,0,671.545,78.381Zm0-25.25a12.032,12.032,0,1,1-12.032,12.032A12.046,12.046,0,0,1,671.545,53.131Zm0,22.526A10.494,10.494,0,1,0,661.05,65.163,10.506,10.506,0,0,0,671.545,75.658Zm0-19.8a9.308,9.308,0,1,1-9.308,9.308A9.319,9.319,0,0,1,671.545,55.855Z" transform="translate(-640.095 -51.945)" fill="#fff"/>
        <path id="Path_5910" data-name="Path 5910" d="M591.8,174.3A2.159,2.159,0,1,0,594,176.458,2.183,2.183,0,0,0,591.8,174.3Zm0,3.131a.973.973,0,1,1,.994-.973A.988.988,0,0,1,591.8,177.431Zm0-3.131A2.159,2.159,0,1,0,594,176.458,2.183,2.183,0,0,0,591.8,174.3Zm0,3.131a.973.973,0,1,1,.994-.973A.988.988,0,0,1,591.8,177.431Zm34.741-21.124c-.43-.32-1.673-.836-3.861,1.281a7.117,7.117,0,0,0-.551.587,14.452,14.452,0,0,1-2.236,2.016,47.041,47.041,0,0,1-5.552,3.629,2.949,2.949,0,0,0-.758-.735c-3.437-2.419-17.97-2.965-18.11-2.965a7.92,7.92,0,0,0-4.94,1.6c-.854.842-2.321,2.218-3.5,3.315l-.485.451-1.661-1.619-6.364,6.227,13.091,12.8,6.358-6.227-1.891-1.856a2.754,2.754,0,0,1,1.891-.83h.1c1.521-.024,5.758-.077,12.315,0,3.934,0,12.407-7.087,15.9-13.3C627.411,158.7,627.5,157.025,626.538,156.307Zm-30.274,20.365-4.649,4.555L580.233,170.1l4.655-4.554Zm28.965-16.563c-3.443,6.132-11.655,12.691-14.861,12.691-6.534-.077-10.788-.024-12.315,0h-.079a3.97,3.97,0,0,0-2.746,1.18l-7.825-7.65.467-.427c1.182-1.115,2.661-2.5,3.5-3.327a6.817,6.817,0,0,1,4.1-1.269c1.091,0,14.491.694,17.4,2.74.679.48.685.824.436,1.376a1.756,1.756,0,0,1-1.727.931H601.216v1.186H611.58a2.92,2.92,0,0,0,2.842-1.648,2.624,2.624,0,0,0,.237-.9,47.868,47.868,0,0,0,6-3.884,15.778,15.778,0,0,0,2.388-2.165,6.532,6.532,0,0,1,.485-.516c1.218-1.18,2.043-1.346,2.273-1.174C626.1,157.476,626.12,158.531,625.229,160.109ZM591.8,178.617a2.159,2.159,0,1,0-2.206-2.159A2.183,2.183,0,0,0,591.8,178.617Zm0-3.131a.973.973,0,1,1-.994.973A.988.988,0,0,1,591.8,175.486Z" transform="translate(-578.524 -132.518)" fill="#fff"/>
      </g>
    </g>
  </g>
</svg>
