<svg xmlns="http://www.w3.org/2000/svg" width="52.578" height="52.289" viewBox="0 0 52.578 52.289">
  <g id="total-return-icon" transform="translate(-14.962 -15.276)">
    <g id="Group_7102" data-name="Group 7102" transform="translate(-791.038 -627.724)">
      <rect id="Rectangle_2185" data-name="Rectangle 2185" width="42" height="28" transform="translate(811.289 666.289)" fill="none" stroke="#fff" stroke-linejoin="round" stroke-width="2"/>
      <path id="Path_5856" data-name="Path 5856" d="M857.578,665.991H807L832.289,644Z" transform="translate(0)" fill="none" stroke="#fff" stroke-linejoin="round" stroke-width="2"/>
      <path id="Path_5857" data-name="Path 5857" d="M827,686.592h-6.6a4.4,4.4,0,0,0-4.4-4.4v-8.8a4.4,4.4,0,0,0,4.4-4.4H827" transform="translate(0.896 2.488)" fill="none" stroke="#fff" stroke-linejoin="round" stroke-width="2"/>
      <path id="Path_5858" data-name="Path 5858" d="M834,669h6.6a4.4,4.4,0,0,0,4.4,4.4v8.8a4.4,4.4,0,0,0-4.4,4.4H834" transform="translate(2.687 2.488)" fill="none" stroke="#fff" stroke-linejoin="round" stroke-width="2"/>
      <line id="Line_598" data-name="Line 598" x2="2" transform="translate(846.289 671.289)" fill="none" stroke="#fff" stroke-linejoin="round" stroke-width="2"/>
      <line id="Line_599" data-name="Line 599" x2="4" transform="translate(839.289 680.289)" fill="none" stroke="#fff" stroke-linejoin="round" stroke-width="2"/>
      <line id="Line_600" data-name="Line 600" x2="4" transform="translate(821.289 680.289)" fill="none" stroke="#fff" stroke-linejoin="round" stroke-width="2"/>
      <line id="Line_601" data-name="Line 601" x2="2" transform="translate(816.289 671.289)" fill="none" stroke="#fff" stroke-linejoin="round" stroke-width="2"/>
      <line id="Line_602" data-name="Line 602" x2="2" transform="translate(846.289 689.289)" fill="none" stroke="#fff" stroke-linejoin="round" stroke-width="2"/>
      <line id="Line_603" data-name="Line 603" x2="2" transform="translate(816.289 689.289)" fill="none" stroke="#fff" stroke-linejoin="round" stroke-width="2"/>
      <g id="Group_4696" data-name="Group 4696" transform="translate(828.99 670.389)">
        <path id="Path_5859" data-name="Path 5859" d="M827,680.9a3.3,3.3,0,1,0,3.3-3.3,3.3,3.3,0,1,1,3.3-3.3" transform="translate(-827 -667.701)" fill="none" stroke="#fff" stroke-linejoin="round" stroke-width="2"/>
        <line id="Line_604" data-name="Line 604" y2="3" transform="translate(3.299 16.9)" fill="none" stroke="#fff" stroke-linejoin="round" stroke-width="2"/>
        <line id="Line_605" data-name="Line 605" y2="3" transform="translate(3.299 -0.1)" fill="none" stroke="#fff" stroke-linejoin="round" stroke-width="2"/>
      </g>
      <circle id="Ellipse_477" data-name="Ellipse 477" cx="4" cy="4" r="4" transform="translate(828.289 653.289)" fill="none" stroke="#fff" stroke-linejoin="round" stroke-width="2"/>
      <line id="Line_606" data-name="Line 606" x2="48" transform="translate(808.289 694.289)" fill="none" stroke="#fff" stroke-linejoin="round" stroke-width="2"/>
    </g>
  </g>
</svg>
