<svg xmlns="http://www.w3.org/2000/svg" width="40.32" height="40.32" viewBox="0 0 40.32 40.32">
  <g id="Icon" transform="translate(-1045 -2669.118)">
    <g id="Icon-2" data-name="Icon" transform="translate(1045 2669.118)">
      <path id="Path_2028" data-name="Path 2028" d="M50.432,45.746a.687.687,0,0,1,.686.686h1.373a2.062,2.062,0,0,0-2.059-2.059V43H49.059v1.373H47v2.059a2.062,2.062,0,0,0,2.059,2.059h1.373a.687.687,0,0,1,.686.686v.686H49.059a.687.687,0,0,1-.686-.686H47a2.062,2.062,0,0,0,2.059,2.059V52.61h1.373V51.237h2.059V49.178a2.062,2.062,0,0,0-2.059-2.059H49.059a.687.687,0,0,1-.686-.686v-.686Z" transform="translate(-17.663 -16.409)" fill="#523680"/>
      <path id="Path_2029" data-name="Path 2029" d="M54.3,29.537l-2.852-4.5,3.074-5.824H52.042a2.214,2.214,0,0,0-1.719.872c-.3.324-.418.429-.686.429s-.386-.1-.686-.429a2.572,2.572,0,0,0-1.032-.754V17.908h2.063a4.689,4.689,0,0,0,4.805-4.552v-.65H51.356a4.92,4.92,0,0,0-3.434,1.375v-.074h0v-.65c0-.014,0-.027,0-.041V10.1h2.061a4.689,4.689,0,0,0,4.805-4.552V4.9H51.356a4.921,4.921,0,0,0-3.432,1.373V5.552A4.689,4.689,0,0,0,43.119,1H39.686v.65A4.689,4.689,0,0,0,44.492,6.2h2.059v3.972A4.923,4.923,0,0,0,43.119,8.8H39.686v.65a4.689,4.689,0,0,0,4.805,4.552h2.057v5.32a2.573,2.573,0,0,0-1.031.755c-.3.323-.418.428-.684.428s-.385-.1-.684-.428a2.21,2.21,0,0,0-1.717-.873H39.949l3.074,5.824-2.852,4.5a7.474,7.474,0,0,0-1.17,4,8.251,8.251,0,0,0,16.475,0A7.474,7.474,0,0,0,54.3,29.537ZM51.356,14.006h1.99a3.4,3.4,0,0,1-3.363,2.6h-1.99A3.4,3.4,0,0,1,51.356,14.006Zm0-7.8h1.99a3.4,3.4,0,0,1-3.363,2.6h-1.99A3.4,3.4,0,0,1,51.356,6.2ZM44.492,4.9a3.4,3.4,0,0,1-3.363-2.6h1.99a3.4,3.4,0,0,1,3.363,2.6Zm0,7.8a3.4,3.4,0,0,1-3.363-2.6h1.99a3.4,3.4,0,0,1,3.363,2.6Zm-2.059,7.8c.266,0,.385.1.683.428a2.126,2.126,0,0,0,3.434,0c.3-.323.417-.428.684-.428s.386.1.686.429a2.13,2.13,0,0,0,3.438,0c.3-.324.418-.429.686-.429H52.3l-2.059,3.9H44.229l-2.059-3.9Zm4.78,19.509a6.674,6.674,0,0,1-6.839-6.479,6.222,6.222,0,0,1,.975-3.334l2.846-4.494H50.28l2.846,4.494A6.222,6.222,0,0,1,54.1,33.54a6.687,6.687,0,0,1-6.889,6.479Z" transform="translate(-15.155 -1)" fill="#523680"/>
      <path id="Path_2030" data-name="Path 2030" d="M36,36h1.373v1.373H36Z" transform="translate(-13.281 -13.281)" fill="#523680"/>
      <path id="Path_2031" data-name="Path 2031" d="M32,36h1.373v1.373H32Z" transform="translate(-11.878 -13.281)" fill="#523680"/>
      <path id="Path_2032" data-name="Path 2032" d="M36,32h1.373v1.373H36Z" transform="translate(-13.281 -11.878)" fill="#523680"/>
      <path id="Path_2033" data-name="Path 2033" d="M28,32h1.373v1.373H28Z" transform="translate(-10.474 -11.878)" fill="#523680"/>
      <path id="Path_2034" data-name="Path 2034" d="M32,32h1.373v1.373H32Z" transform="translate(-11.878 -11.878)" fill="#523680"/>
      <path id="Path_2035" data-name="Path 2035" d="M25.025,6H19.534V20.188H18.161V8.58H12.669V20.188H11.3V11.159H5.805v10.25A8.947,8.947,0,0,0,1,29.217c0,4.979,4.311,9.029,9.61,9.029h6.864v2.529l8.748-5.753-8.748-5.753V31.8H10.61a2.585,2.585,0,1,1,0-5.159h10.3v-1.29H10.61a3.877,3.877,0,1,0,0,7.739h8.237V31.745l4.981,3.275L18.847,38.3V36.955H10.61a8.009,8.009,0,0,1-8.237-7.739,8.009,8.009,0,0,1,8.237-7.739H26.4v-1.29H25.025ZM20.907,7.29h2.746v12.9H20.907Zm-6.864,2.58h2.746V20.188H14.042Zm-6.864,2.58H9.924v7.772a10.063,10.063,0,0,0-2.746.573Z" transform="translate(-1 -2.568)" fill="#523680"/>
    </g>
  </g>
</svg>
