<svg xmlns="http://www.w3.org/2000/svg" width="48" height="48" viewBox="0 0 48 48">
  <g id="Group_6988" data-name="Group 6988" transform="translate(1 1)">
    <circle id="Ellipse_472" data-name="Ellipse 472" cx="10" cy="10" r="10" transform="translate(13 15)" fill="none" stroke="#523680" stroke-linejoin="round" stroke-width="2"/>
    <path id="Path_5838" data-name="Path 5838" d="M524,669.5l4,4,8-8" transform="translate(-507 -644)" fill="none" stroke="#523680" stroke-miterlimit="10" stroke-width="2"/>
    <path id="Path_5839" data-name="Path 5839" d="M516,678c0,2.147-1.343,4-3,4s-3-1.853-3-4a3,3,0,0,1,6,0Z" transform="translate(-507 -644)" fill="none" stroke="#523680" stroke-linejoin="round" stroke-width="2"/>
    <path id="Path_5840" data-name="Path 5840" d="M519,691v-6.306a2,2,0,0,0-1.671-1.972L513,682l-4.329.722A2,2,0,0,0,507,684.694V691" transform="translate(-507 -644)" fill="none" stroke="#523680" stroke-linejoin="round" stroke-width="2"/>
    <path id="Path_5841" data-name="Path 5841" d="M550,678c0,2.147-1.343,4-3,4s-3-1.853-3-4a3,3,0,0,1,6,0Z" transform="translate(-507 -644)" fill="none" stroke="#523680" stroke-linejoin="round" stroke-width="2"/>
    <path id="Path_5842" data-name="Path 5842" d="M553,691v-6.306a2,2,0,0,0-1.671-1.972L547,682l-4.329.722A2,2,0,0,0,541,684.694V691" transform="translate(-507 -644)" fill="none" stroke="#523680" stroke-linejoin="round" stroke-width="2"/>
    <path id="Path_5843" data-name="Path 5843" d="M516,647c0,2.147-1.343,4-3,4s-3-1.853-3-4a3,3,0,0,1,6,0Z" transform="translate(-507 -644)" fill="none" stroke="#523680" stroke-linejoin="round" stroke-width="2"/>
    <path id="Path_5844" data-name="Path 5844" d="M519,660v-6.306a2,2,0,0,0-1.671-1.972L513,651l-4.329.722A2,2,0,0,0,507,653.694V660" transform="translate(-507 -644)" fill="none" stroke="#523680" stroke-linejoin="round" stroke-width="2"/>
    <path id="Path_5845" data-name="Path 5845" d="M550,647c0,2.147-1.343,4-3,4s-3-1.853-3-4a3,3,0,0,1,6,0Z" transform="translate(-507 -644)" fill="none" stroke="#523680" stroke-linejoin="round" stroke-width="2"/>
    <path id="Path_5846" data-name="Path 5846" d="M553,660v-6.306a2,2,0,0,0-1.671-1.972L547,651l-4.329.722A2,2,0,0,0,541,653.694V660" transform="translate(-507 -644)" fill="none" stroke="#523680" stroke-linejoin="round" stroke-width="2"/>
    <line id="Line_581" data-name="Line 581" x2="14" transform="translate(17 8)" fill="none" stroke="#523680" stroke-linejoin="round" stroke-width="2"/>
    <line id="Line_582" data-name="Line 582" x2="14" transform="translate(15 42)" fill="none" stroke="#523680" stroke-linejoin="round" stroke-width="2"/>
    <line id="Line_583" data-name="Line 583" y1="8" transform="translate(6 18)" fill="none" stroke="#523680" stroke-linejoin="round" stroke-width="2"/>
    <line id="Line_584" data-name="Line 584" y1="10" transform="translate(40 18)" fill="none" stroke="#523680" stroke-linejoin="round" stroke-width="2"/>
    <line id="Line_585" data-name="Line 585" y1="2" transform="translate(6 14)" fill="none" stroke="#523680" stroke-linejoin="round" stroke-width="2"/>
    <line id="Line_586" data-name="Line 586" y1="2" transform="translate(6 10)" fill="none" stroke="#523680" stroke-linejoin="round" stroke-width="2"/>
    <line id="Line_587" data-name="Line 587" y1="2" transform="translate(40 45)" fill="none" stroke="#523680" stroke-linejoin="round" stroke-width="2"/>
    <line id="Line_588" data-name="Line 588" y1="2" transform="translate(40 41)" fill="none" stroke="#523680" stroke-linejoin="round" stroke-width="2"/>
    <path id="Path_5847" data-name="Path 5847" d="M527,656l-4-4,4-4" transform="translate(-507 -644)" fill="none" stroke="#523680" stroke-linejoin="round" stroke-width="2"/>
    <path id="Path_5848" data-name="Path 5848" d="M517,667l-4,4-4-4" transform="translate(-507 -644)" fill="none" stroke="#523680" stroke-linejoin="round" stroke-width="2"/>
    <path id="Path_5849" data-name="Path 5849" d="M543,665l4-4,4,4" transform="translate(-507 -644)" fill="none" stroke="#523680" stroke-linejoin="round" stroke-width="2"/>
    <path id="Path_5850" data-name="Path 5850" d="M533,682l4,4-4,4" transform="translate(-507 -644)" fill="none" stroke="#523680" stroke-linejoin="round" stroke-width="2"/>
  </g>
</svg>
