<svg xmlns="http://www.w3.org/2000/svg" width="76.316" height="50" viewBox="0 0 76.316 50">
  <g id="_255-brazil" data-name="255-brazil" transform="translate(0 -88.276)">
    <path id="Path_9293" data-name="Path 9293" d="M75,138.276H1.316A1.316,1.316,0,0,1,0,136.96V89.592a1.316,1.316,0,0,1,1.316-1.316H75a1.316,1.316,0,0,1,1.316,1.316V136.96A1.316,1.316,0,0,1,75,138.276Z" fill="#73af00"/>
    <path id="Path_9294" data-name="Path 9294" d="M89.046,134.11,61.738,150.683a1.29,1.29,0,0,0,0,2.207l27.308,16.573a1.3,1.3,0,0,0,1.347,0L117.7,152.89a1.29,1.29,0,0,0,0-2.207L90.393,134.11A1.3,1.3,0,0,0,89.046,134.11Z" transform="translate(-51.562 -38.51)" fill="#ffe15a"/>
    <circle id="Ellipse_530" data-name="Ellipse 530" cx="11.04" cy="11.04" r="11.04" transform="translate(27.118 102.236)" fill="#41479b"/>
    <g id="Group_7078" data-name="Group 7078" transform="translate(27.485 107.569)">
      <path id="Path_9295" data-name="Path 9295" d="M188.985,219.814a10.961,10.961,0,0,0-1.189,2.826c6.12-.461,15.173,1.252,20.935,6.843a10.962,10.962,0,0,0,.718-3.052C203.5,221.423,195.273,219.642,188.985,219.814Z" transform="translate(-187.796 -219.803)" fill="#f5f5f5"/>
      <path id="Path_9296" data-name="Path 9296" d="M250.372,279.638l.294.881.929.007a.125.125,0,0,1,.074.226l-.747.552.28.886a.125.125,0,0,1-.192.14l-.756-.54-.756.54a.125.125,0,0,1-.192-.14l.28-.886-.747-.552a.125.125,0,0,1,.073-.226l.929-.007.294-.881A.125.125,0,0,1,250.372,279.638Z" transform="translate(-239.253 -270.212)" fill="#f5f5f5"/>
      <path id="Path_9297" data-name="Path 9297" d="M278.341,294.486l.126.379.4,0a.054.054,0,0,1,.032.1l-.322.237.121.381a.054.054,0,0,1-.083.06l-.325-.232-.325.232a.054.054,0,0,1-.083-.06L278,295.2l-.322-.237a.054.054,0,0,1,.032-.1l.4,0,.126-.379A.054.054,0,0,1,278.341,294.486Z" transform="translate(-263.611 -282.78)" fill="#f5f5f5"/>
      <path id="Path_9298" data-name="Path 9298" d="M245.255,269.191l.126.379.4,0a.054.054,0,0,1,.032.1l-.322.237.121.381a.054.054,0,0,1-.083.06l-.325-.232-.325.232a.054.054,0,0,1-.083-.06l.121-.381-.322-.237a.054.054,0,0,1,.032-.1l.4,0,.126-.379A.054.054,0,0,1,245.255,269.191Z" transform="translate(-235.697 -261.44)" fill="#f5f5f5"/>
      <path id="Path_9299" data-name="Path 9299" d="M200.447,266.249l.126.379.4,0a.054.054,0,0,1,.032.1l-.322.237.121.381a.054.054,0,0,1-.083.06l-.325-.232-.325.232a.054.054,0,0,1-.083-.06l.121-.381-.322-.237a.054.054,0,0,1,.032-.1l.4,0,.126-.379A.054.054,0,0,1,200.447,266.249Z" transform="translate(-197.894 -258.957)" fill="#f5f5f5"/>
      <path id="Path_9300" data-name="Path 9300" d="M237.931,293.649l.126.379.4,0a.054.054,0,0,1,.032.1l-.322.237.121.381a.054.054,0,0,1-.083.06l-.325-.232-.325.232a.054.054,0,0,1-.083-.06l.121-.381-.322-.237a.054.054,0,0,1,.032-.1l.4,0,.126-.379A.054.054,0,0,1,237.931,293.649Z" transform="translate(-229.518 -282.074)" fill="#f5f5f5"/>
      <path id="Path_9301" data-name="Path 9301" d="M217.979,264.592l.1.31.327,0a.044.044,0,0,1,.026.08l-.263.194.1.312a.044.044,0,0,1-.068.049l-.266-.19-.266.19a.044.044,0,0,1-.068-.049l.1-.312-.263-.194a.044.044,0,0,1,.026-.08l.327,0,.1-.31A.044.044,0,0,1,217.979,264.592Z" transform="translate(-212.79 -257.565)" fill="#f5f5f5"/>
      <path id="Path_9302" data-name="Path 9302" d="M280.053,223.59l.129.388.409,0a.055.055,0,0,1,.032.1l-.329.243.123.39a.055.055,0,0,1-.085.061l-.333-.238-.333.238a.055.055,0,0,1-.085-.061l.123-.39-.329-.243a.055.055,0,0,1,.032-.1l.409,0,.129-.388A.055.055,0,0,1,280.053,223.59Z" transform="translate(-265.042 -222.966)" fill="#f5f5f5"/>
      <path id="Path_9303" data-name="Path 9303" d="M204,252.454l.1.31.327,0a.044.044,0,0,1,.026.08l-.263.194.1.312a.044.044,0,0,1-.068.049l-.266-.19-.266.19a.044.044,0,0,1-.068-.049l.1-.312-.263-.194a.044.044,0,0,1,.026-.08l.327,0,.1-.31A.044.044,0,0,1,204,252.454Z" transform="translate(-200.997 -247.325)" fill="#f5f5f5"/>
      <path id="Path_9304" data-name="Path 9304" d="M212.551,280.335l.157.47.5,0a.067.067,0,0,1,.039.12l-.4.294.149.472a.067.067,0,0,1-.1.074l-.4-.288-.4.288a.067.067,0,0,1-.1-.074l.149-.472-.4-.294a.067.067,0,0,1,.039-.12l.5,0,.157-.47A.067.067,0,0,1,212.551,280.335Z" transform="translate(-207.968 -270.834)" fill="#f5f5f5"/>
      <path id="Path_9305" data-name="Path 9305" d="M292.034,295.16l.1.3.312,0a.042.042,0,0,1,.025.076l-.251.185.094.3a.042.042,0,0,1-.064.047l-.253-.181-.254.181a.042.042,0,0,1-.065-.047l.094-.3-.251-.185a.042.042,0,0,1,.025-.076l.312,0,.1-.3A.042.042,0,0,1,292.034,295.16Z" transform="translate(-275.29 -283.355)" fill="#f5f5f5"/>
      <path id="Path_9306" data-name="Path 9306" d="M298.194,280.686l.126.379.4,0a.054.054,0,0,1,.032.1l-.322.237.121.381a.054.054,0,0,1-.083.06l-.325-.232-.325.232a.054.054,0,0,1-.083-.06l.121-.381-.322-.237a.054.054,0,0,1,.032-.1l.4,0,.126-.379A.054.054,0,0,1,298.194,280.686Z" transform="translate(-280.36 -271.137)" fill="#f5f5f5"/>
    </g>
  </g>
</svg>
