<svg xmlns="http://www.w3.org/2000/svg" width="20" height="20" viewBox="0 0 20 20">
  <g id="check-circle" transform="translate(-1.5 -1.5)">
    <path id="Path_8087" data-name="Path 8087" d="M11.5,21.5h0a10,10,0,0,1,0-20h0a8.984,8.984,0,0,1,4.091.909.9.9,0,1,1-.727,1.636A8.6,8.6,0,0,0,11.5,3.318h0a8.182,8.182,0,1,0,0,16.364h0A8.148,8.148,0,0,0,19.682,11.5v-.818a.909.909,0,0,1,1.818,0V11.5A9.971,9.971,0,0,1,11.5,21.5Z" fill="#fff"/>
    <path id="Path_8088" data-name="Path 8088" d="M15.818,15.955a.867.867,0,0,1-.668-.286L12.286,12.8a.945.945,0,0,1,1.336-1.336l2.2,2.2L24.7,4.786a.945.945,0,0,1,1.336,1.336l-9.545,9.545A.867.867,0,0,1,15.818,15.955Z" transform="translate(-4.818 -1.091)" fill="#fff"/>
  </g>
</svg>
