<svg xmlns="http://www.w3.org/2000/svg" width="77.603" height="50.843" viewBox="0 0 77.603 50.843">
  <g id="_246-india" data-name="246-india" transform="translate(0 -88.276)">
    <path id="Path_9307" data-name="Path 9307" d="M77.6,105.224H0V89.614a1.338,1.338,0,0,1,1.338-1.338H76.265A1.338,1.338,0,0,1,77.6,89.614v15.61Z" fill="#fab446"/>
    <path id="Path_9308" data-name="Path 9308" d="M76.265,328.857H1.338A1.338,1.338,0,0,1,0,327.519v-15.61H77.6v15.61A1.338,1.338,0,0,1,76.265,328.857Z" transform="translate(0 -189.737)" fill="#73af00"/>
    <rect id="Rectangle_22189" data-name="Rectangle 22189" width="77.603" height="16.947" transform="translate(0 105.224)" fill="#f5f5f5"/>
    <g id="Group_7079" data-name="Group 7079" transform="translate(31.61 106.506)">
      <path id="Path_9309" data-name="Path 9309" d="M215.744,222.936a7.192,7.192,0,1,1,7.192-7.192A7.2,7.2,0,0,1,215.744,222.936Zm0-13.045a5.854,5.854,0,1,0,5.854,5.854A5.86,5.86,0,0,0,215.744,209.891Z" transform="translate(-208.552 -208.553)" fill="#41479b"/>
      <circle id="Ellipse_531" data-name="Ellipse 531" cx="0.815" cy="0.815" r="0.815" transform="translate(6.376 6.376)" fill="#41479b"/>
      <path id="Path_9310" data-name="Path 9310" d="M219.489,254.268l-2.072.209-4.451-.209v-.245l4.451-.209,2.072.209Z" transform="translate(-212.297 -246.954)" fill="#41479b"/>
      <path id="Path_9311" data-name="Path 9311" d="M256,254.268l2.072.209,4.451-.209v-.245l-4.451-.209-2.072.209Z" transform="translate(-248.808 -246.954)" fill="#41479b"/>
      <path id="Path_9312" data-name="Path 9312" d="M254.022,219.49l-.209-2.072.209-4.451h.245l.209,4.451-.209,2.072Z" transform="translate(-246.953 -212.298)" fill="#41479b"/>
      <path id="Path_9313" data-name="Path 9313" d="M254.022,256l-.209,2.072.209,4.451h.245l.209-4.451L254.267,256Z" transform="translate(-246.953 -248.809)" fill="#41479b"/>
      <path id="Path_9314" data-name="Path 9314" d="M229.612,229.786,228,228.469l-3-3.3.173-.173,3.3,3,1.317,1.613Z" transform="translate(-222.507 -222.508)" fill="#41479b"/>
      <path id="Path_9315" data-name="Path 9315" d="M255.43,255.6l1.317,1.613,3.3,3,.173-.173-3-3.3-1.613-1.317Z" transform="translate(-248.325 -248.326)" fill="#41479b"/>
      <path id="Path_9316" data-name="Path 9316" d="M255.43,229.613,256.747,228l3.3-3,.173.173-3,3.3-1.613,1.317Z" transform="translate(-248.325 -222.508)" fill="#41479b"/>
      <path id="Path_9317" data-name="Path 9317" d="M229.612,255.431,228,256.748l-3,3.3.173.173,3.3-3,1.317-1.613Z" transform="translate(-222.507 -248.326)" fill="#41479b"/>
      <path id="Path_9318" data-name="Path 9318" d="M222.053,255.481l-1.834.986-4.192,1.51-.094-.226,4.032-1.9,1.994-.6Z" transform="translate(-214.814 -248.176)" fill="#41479b"/>
      <path id="Path_9319" data-name="Path 9319" d="M255.785,241.509l1.994-.6,4.032-1.9-.094-.226-4.192,1.51-1.834.986Z" transform="translate(-248.546 -234.204)" fill="#41479b"/>
      <path id="Path_9320" data-name="Path 9320" d="M241.282,222.054l-.986-1.834-1.51-4.192.226-.094,1.9,4.032.6,1.994Z" transform="translate(-234.203 -214.815)" fill="#41479b"/>
      <path id="Path_9321" data-name="Path 9321" d="M255.254,255.786l.6,1.994,1.9,4.032.226-.094-1.51-4.192-.986-1.834Z" transform="translate(-248.175 -248.547)" fill="#41479b"/>
      <path id="Path_9322" data-name="Path 9322" d="M221.959,241.509l-1.994-.6-4.032-1.9.094-.226,4.192,1.51,1.834.986Z" transform="translate(-214.814 -234.204)" fill="#41479b"/>
      <path id="Path_9323" data-name="Path 9323" d="M255.691,255.481l1.834.986,4.192,1.51.094-.226-4.032-1.9-1.994-.6Z" transform="translate(-248.546 -248.176)" fill="#41479b"/>
      <path id="Path_9324" data-name="Path 9324" d="M255.254,221.96l.6-1.994,1.9-4.032.226.094-1.51,4.192-.986,1.834Z" transform="translate(-248.175 -214.815)" fill="#41479b"/>
      <path id="Path_9325" data-name="Path 9325" d="M241.282,255.692l-.986,1.834-1.51,4.192.226.094,1.9-4.032.6-1.994Z" transform="translate(-234.203 -248.547)" fill="#41479b"/>
    </g>
    <circle id="Ellipse_532" data-name="Ellipse 532" cx="1.1" cy="1.1" r="1.1" transform="translate(37.702 112.598)" fill="#f5f5f5"/>
    <circle id="Ellipse_533" data-name="Ellipse 533" cx="0.659" cy="0.659" r="0.659" transform="translate(38.142 113.038)" fill="#41479b"/>
  </g>
</svg>
