<svg xmlns="http://www.w3.org/2000/svg" width="59.873" height="60" viewBox="0 0 59.873 60">
  <g id="icon" transform="translate(-1 -0.869)">
    <path id="Path_2048" data-name="Path 2048" d="M5.788,43.3a16.737,16.737,0,0,0,.833,2.111l1.793-.852A14.489,14.489,0,0,1,7.68,42.7Z" transform="translate(-0.037 -1.486)" fill="#623bb1"/>
    <path id="Path_2049" data-name="Path 2049" d="M11.309,27.7l-.7-.707-.731-.672A16.558,16.558,0,0,0,5,38.109a16.788,16.788,0,0,0,.261,2.952l1.954-.349a14.818,14.818,0,0,1-.23-2.6,14.582,14.582,0,0,1,4.294-10.377Z" transform="translate(-0.031 -1.085)" fill="#623bb1"/>
    <path id="Path_2050" data-name="Path 2050" d="M0,0H1.985V1.985H0Z" transform="translate(26.106 21.393) rotate(-45)" fill="#623bb1"/>
    <path id="Path_2051" data-name="Path 2051" d="M0,0H1.985V1.986H0Z" transform="translate(28.833 24.12) rotate(-45)" fill="#623bb1"/>
    <path id="Path_2052" data-name="Path 2052" d="M35.812,32.371l1.826-.777a16.5,16.5,0,0,0-.951-1.884l-1.712,1.006A14.133,14.133,0,0,1,35.812,32.371Z" transform="translate(-1.206 -1.024)" fill="#623bb1"/>
    <path id="Path_2053" data-name="Path 2053" d="M33.919,29.149l1.57-1.215a17,17,0,0,0-1.39-1.583l-1.407,1.4A15.371,15.371,0,0,1,33.919,29.149Z" transform="translate(-1.127 -0.906)" fill="#623bb1"/>
    <path id="Path_2054" data-name="Path 2054" d="M22.961,43H20.977v1.985a2.977,2.977,0,0,0,0,5.954h1.985a.992.992,0,0,1,0,1.985H19.985V51.93H18v2.977h2.977v1.985h1.985V54.907a2.977,2.977,0,1,0,0-5.954H20.977a.992.992,0,0,1,0-1.985h2.977v.992h1.985V44.985H22.961Z" transform="translate(-0.65 -1.976)" fill="#623bb1"/>
    <path id="Path_2055" data-name="Path 2055" d="M58.942,22.241c0,2.444-1.318,4.924-3.919,7.368a22.964,22.964,0,0,1-13.529,6.017,19.949,19.949,0,0,0-5.817-12.908l-7.237-7.238,5.394-5.394v-.4a4.253,4.253,0,0,0-3.721-4.214L28.334,5.25l.927-3.013L23.789.869,21.325,4.152l-1.533-2.3L13.257,3.161l.707,2.122-1.519.19A4.253,4.253,0,0,0,8.726,9.687v.4l5.394,5.394L6.883,22.718A20.079,20.079,0,0,0,9.911,53.6,12.559,12.559,0,0,0,21.28,60.869H60.873V22.241ZM38.975,37.692c.87,0,1.732-.043,2.584-.125v21.37H37.7V37.692Zm4.516-.382a25.953,25.953,0,0,0,3.863-.958V58.938H43.491Zm5.794-1.695a24.488,24.488,0,0,0,3.863-2.08v25.4H49.285ZM29.874,7.388a2.32,2.32,0,0,1,2,1.929l-5.2,5.2h-1.19l2.274-7.391ZM18.9,4,21.233,7.5l3.331-4.442,2.253.563-3.354,10.9H19.078l-3.3-9.891ZM12.686,7.388l1.9-.238,2.455,7.364H15.885l-5.2-5.2a2.321,2.321,0,0,1,2-1.929ZM2.931,36.921A18.035,18.035,0,0,1,8.249,24.083l7.637-7.637H26.674l7.637,7.637a18.032,18.032,0,0,1,5.257,11.65c-.2,0-.393.027-.593.027H21.28A12.479,12.479,0,0,0,8.91,50.379,18.089,18.089,0,0,1,2.931,36.921Zm7.726,11.394A10.623,10.623,0,1,1,21.28,58.938,10.635,10.635,0,0,1,10.657,48.315Zm23.177,0a12.542,12.542,0,0,0-5.895-10.623h7.826V58.938H27.939A12.542,12.542,0,0,0,33.834,48.315ZM55.079,58.938V32.116c.433-.352.859-.716,1.267-1.1a17.929,17.929,0,0,0,2.6-3.008V58.938Z" transform="translate(0)" fill="#623bb1"/>
    <path id="Path_2056" data-name="Path 2056" d="M54.971,6.384v11.5h1.985V6.384L59.231,8.66l1.4-1.4L55.964,2.586,51.293,7.257l1.4,1.4Z" transform="translate(-2.036 -0.013)" fill="#623bb1"/>
    <path id="Path_2057" data-name="Path 2057" d="M45.971,13.384v11.5h1.985v-11.5l2.275,2.275,1.4-1.4L46.964,9.586l-4.671,4.671,1.4,1.4Z" transform="translate(-1.613 -0.067)" fill="#623bb1"/>
  </g>
</svg>
