<svg xmlns="http://www.w3.org/2000/svg" width="60.006" height="60" viewBox="0 0 60.006 60">
  <g id="icon" transform="translate(-15.962 -16.015)">
    <path id="Path_2013" data-name="Path 2013" d="M28.529,27.364l-.045,10a1,1,0,0,1-1.6.793l-.944-.715a21.816,21.816,0,0,0,2.142,21l-1.642,1.142a23.812,23.812,0,0,1-1.783-24.136,1,1,0,0,1,1.5-.353l.34.258.03-6.666-6.407,1.838,1.01.764a1,1,0,0,1,.274,1.278,27.891,27.891,0,0,0-1.72,3.789L17.8,35.67a29.9,29.9,0,0,1,1.439-3.3l-1.927-1.459a1,1,0,0,1,.328-1.759L27.253,26.4a1,1,0,0,1,1.276.966Zm-9.378,32.1,1.788-.9a27.831,27.831,0,0,1-2.694-16.47,28.405,28.405,0,0,1,.689-3.379L17,38.2a30.389,30.389,0,0,0-.738,3.618A29.821,29.821,0,0,0,19.15,59.463ZM41.174,37.114a11.036,11.036,0,0,0-1.807,1.105l1.2,1.6a9.029,9.029,0,0,1,1.479-.9Zm-6.206,10.9h2v-1a8.975,8.975,0,0,1,2.327-6.032L37.811,39.64a10.971,10.971,0,0,0-2.844,7.374Zm38,27v-9h-2v8h-10v-12h1v-2H60.225A15.428,15.428,0,0,0,45.414,60l-.034.018H37.968a4.005,4.005,0,0,0-3.863,5.047L30.21,63.277a1.83,1.83,0,0,1,.293-.385l2.171-2.171a1,1,0,0,0,.293-.707v-13a13.036,13.036,0,0,1,9.521-12.529,1,1,0,0,0,.594-1.472l-2.362-4h10.5l-2.363,4a1,1,0,0,0,.594,1.472,13.036,13.036,0,0,1,9.521,12.529v11h2v-11A15.049,15.049,0,0,0,51.21,32.955l2.619-4.434a1,1,0,0,0-.861-1.509h-14a1,1,0,0,0-.861,1.509l2.619,4.434a15.049,15.049,0,0,0-9.759,14.058V59.6l-1.878,1.878a3.818,3.818,0,0,0-.7.964L25.012,60.9A4.316,4.316,0,0,0,19.48,62.75a4.49,4.49,0,0,0,1.847,6.063l11.661,5.83A13.073,13.073,0,0,0,38.8,76.014H52.968v-2H38.8a11.062,11.062,0,0,1-4.919-1.161l-11.66-5.83a2.526,2.526,0,0,1-.981-3.325,2.291,2.291,0,0,1,2.94-.984l11.371,5.209a1,1,0,0,0,.417.091h11v-2h-9a2,2,0,0,1,0-4h7.666a1,1,0,0,0,.476-.121l.259-.14a13.436,13.436,0,0,1,12.6-.145V74.014h-4v2h17A1,1,0,0,0,72.969,75.014Zm-6-5a2,2,0,1,0-2,2A2,2,0,0,0,66.969,70.014Zm-20-27v4a4,4,0,1,1,0,8v2h-2v-2a4,4,0,0,1-4-4h2a2,2,0,0,0,2,2v-4a4,4,0,0,1,0-8v-2h2v2a4,4,0,0,1,4,4h-2A2,2,0,0,0,46.968,43.013Zm-2,0a2,2,0,0,0,0,4Zm2,6v4a2,2,0,1,0,0-4ZM49.884,18.29a28.011,28.011,0,0,1,23.669,22.9l1.97-.344a30.006,30.006,0,0,0-46.63-19.495,1,1,0,0,0-.274,1.359l3.338,5.249a1,1,0,0,0,1.422.28A21.792,21.792,0,0,1,65.994,54.6l-.968-.733a1,1,0,0,0-1.6.793l-.045,10a1,1,0,0,0,1.276.966l9.612-2.757a1,1,0,0,0,.328-1.759l-1.906-1.443A30.194,30.194,0,0,0,75.9,43.946l-2,.136a28.2,28.2,0,0,1-.215,5.849,27.9,27.9,0,0,1-3.161,9.538,1,1,0,0,0,.273,1.278l.989.749-6.408,1.838.03-6.666.364.275a1,1,0,0,0,1.5-.353A23.788,23.788,0,0,0,33.094,26.013l-2.262-3.556A27.906,27.906,0,0,1,49.884,18.29Z" fill="#623bb1"/>
  </g>
</svg>
