<svg xmlns="http://www.w3.org/2000/svg" width="60" height="60" viewBox="0 0 60 60">
  <g id="icon" transform="translate(-534 -6552)">
    <g id="_001-investment" data-name="001-investment" transform="translate(533 6551)">
      <path id="Path_1997" data-name="Path 1997" d="M41,41v2.142A3.992,3.992,0,0,0,42,51a2,2,0,1,1-2,2H38a4,4,0,0,0,3,3.858V59h2V56.858A3.992,3.992,0,0,0,42,49a2,2,0,1,1,2-2h2a4,4,0,0,0-3-3.858V41Z" transform="translate(-1.37 -2)" fill="#623bb1"/>
      <path id="Path_1998" data-name="Path 1998" d="M54.226,20.355a8.723,8.723,0,0,0-8.663,7.8,6.758,6.758,0,0,0-3.917,1.985V1h-31.4L1,11.274v43.92H30.032v-.1a12.571,12.571,0,1,0,11.613-19.2V34.871a4.844,4.844,0,0,1,4.839-4.839H52.29A8.72,8.72,0,0,0,61,21.323v-.968ZM4.14,10.677,9.71,4.49v6.188Zm2.666,1.935h4.839V6.806H35.839v7.742H6.806Zm21.34,36.774H18.419V39.71h13.2a12.529,12.529,0,0,0-3.524,8.71C28.1,48.746,28.121,49.067,28.146,49.387Zm7.7-12.581A12.54,12.54,0,0,0,33.9,37.835v-.061H18.419V35.839H35.839v.968Zm-19.363.968H6.806V35.839h9.677ZM6.806,39.71h9.677v9.677H6.806Zm44.516,8.71A10.645,10.645,0,1,1,40.677,37.774,10.658,10.658,0,0,1,51.323,48.419ZM39.71,35.888a12.389,12.389,0,0,0-1.935.3V33.9H4.871V51.323H28.448a12.36,12.36,0,0,0,.619,1.935H2.935V12.613H4.871v3.871h32.9V4.871H11.645V2.935H39.71V30.144a6.758,6.758,0,0,0-3.917-1.985,8.723,8.723,0,0,0-8.663-7.8H20.355v.968a8.72,8.72,0,0,0,8.71,8.71h5.806a4.844,4.844,0,0,1,4.839,4.839ZM33.835,28.1h-4.77a6.785,6.785,0,0,1-6.705-5.806h4.77A6.785,6.785,0,0,1,33.835,28.1Zm18.456,0H47.52a6.785,6.785,0,0,1,6.705-5.806H59A6.785,6.785,0,0,1,52.29,28.1Z" fill="#623bb1"/>
      <path id="Path_1999" data-name="Path 1999" d="M10,43h4v2H10Z" transform="translate(0 -1.4)" fill="#623bb1"/>
      <path id="Path_2000" data-name="Path 2000" d="M10,47h4v2H10Z" transform="translate(0 -1.533)" fill="#623bb1"/>
      <path id="Path_2001" data-name="Path 2001" d="M22,43h4v2H22Z" transform="translate(-0.724 -1.4)" fill="#623bb1"/>
      <path id="Path_2002" data-name="Path 2002" d="M22,47h4v2H22Z" transform="translate(-0.724 -1.533)" fill="#623bb1"/>
      <path id="Path_2003" data-name="Path 2003" d="M5,19H19v2H5Z" transform="translate(0 -0.6)" fill="#623bb1"/>
      <path id="Path_2004" data-name="Path 2004" d="M5,23H19v2H5Z" transform="translate(0 -0.733)" fill="#623bb1"/>
      <path id="Path_2005" data-name="Path 2005" d="M5,27H19v2H5Z" transform="translate(0 -0.867)" fill="#623bb1"/>
      <path id="Path_2006" data-name="Path 2006" d="M17,31h2v2H17Z" transform="translate(-0.533 -1)" fill="#623bb1"/>
      <path id="Path_2007" data-name="Path 2007" d="M5,31H15v2H5Z" transform="translate(0 -1)" fill="#623bb1"/>
      <path id="Path_2008" data-name="Path 2008" d="M49,49h2v2H49Z" transform="translate(-1.6 -1.6)" fill="#623bb1"/>
      <path id="Path_2009" data-name="Path 2009" d="M33,49h2v2H33Z" transform="translate(-1.067 -1.6)" fill="#623bb1"/>
    </g>
  </g>
</svg>
