<svg xmlns="http://www.w3.org/2000/svg" width="40.482" height="40.482" viewBox="0 0 40.482 40.482">
  <g id="Icon" transform="translate(-958.567 -2702.56)">
    <g id="Icon-2" data-name="Icon" transform="translate(958.567 2702.56)">
      <path id="Shape" d="M35.368,39c-1.132,0-3.75.426-3.75,4.412a4.64,4.64,0,0,0,1.419,3.25,8.993,8.993,0,0,1-2.89.426c-1.691,0-3.677-.507-3.677-2.941a.735.735,0,0,0-1.471,0c0,2.765,1.934,4.412,5.147,4.412a9.986,9.986,0,0,0,4.155-.824,5.589,5.589,0,0,0,1.728.824A.735.735,0,0,0,36.3,47.14a5.008,5.008,0,0,1-.537-.257c3.7-2.816,2.985-7.883-.4-7.883Zm-.9,6.993a3.471,3.471,0,0,1-1.375-2.581c0-2.64,1.3-2.941,2.28-2.941C37.28,40.471,37.457,44.147,34.464,45.993Z" transform="translate(-8.782 -13.96)" fill="#fff"/>
      <path id="Shape-2" data-name="Shape" d="M15.471,8.412H27.236a1.471,1.471,0,0,0,1.471-1.471V5.471A1.471,1.471,0,0,0,27.236,4H15.471A1.471,1.471,0,0,0,14,5.471V6.941A1.471,1.471,0,0,0,15.471,8.412Zm0-2.941H27.236V6.941H15.471Z" transform="translate(-4.979 -1.059)" fill="#fff"/>
      <path id="Shape-3" data-name="Shape" d="M39.133,14.843H32.386V2.024A2.024,2.024,0,0,0,30.362,0H7.422C7.03,0,7.26-.122.2,6.943a.715.715,0,0,0-.189.439C0,7.644,0,4.77,0,35.759a4.723,4.723,0,0,0,4.723,4.723H35.759a4.723,4.723,0,0,0,4.723-4.723V16.193A1.349,1.349,0,0,0,39.133,14.843ZM6.747,2.3V6.747H2.3ZM4.723,39.133a3.374,3.374,0,0,1-3.374-3.374V8.1h5.4A1.349,1.349,0,0,0,8.1,6.747v-5.4H30.362a.675.675,0,0,1,.675.675V35.759a4.723,4.723,0,0,0,1.424,3.374Zm34.41-3.374a3.374,3.374,0,0,1-6.747,0V16.193h6.747Z" transform="translate(0 0)" fill="#fff"/>
      <path id="Shape-4" data-name="Shape" d="M10.381,24.383l8.824,10.743a1.427,1.427,0,0,0,2.206,0l8.824-10.743a1.654,1.654,0,0,0,.3-1.537c-.162-.566,0-.316-4.147-4.412A1.507,1.507,0,0,0,25.3,18H15.286a1.507,1.507,0,0,0-1.059.434L10.491,22.11a1.691,1.691,0,0,0-.11,2.272Zm5.008-1.154,3.059,8.67-6.692-8.155Zm13.442.515L22.139,31.9l3.059-8.67Zm-9.273,6.875-2.64-7.471h2.64Zm1.471-7.471h2.64l-2.64,7.471Zm2.78-1.471h-2.78V19.471h2.338Zm-4.25,0h-2.78l.441-2.206h2.338Zm5.765-2.206,2.691,2.655-2.691-.382-.456-2.272Zm-10.037,0h.434l-.456,2.287-2.684.382Z" transform="translate(-3.783 -6.583)" fill="#fff"/>
      <path id="Shape-5" data-name="Shape" d="M24.471,14.206V12.735a.735.735,0,1,0-1.471,0v1.471a.735.735,0,1,0,1.471,0Z" transform="translate(-7.53 -3.956)" fill="#fff"/>
      <path id="Shape-6" data-name="Shape" d="M11.683,16.727a.738.738,0,1,0,1.044-1.044l-1.471-1.471a.738.738,0,1,0-1.044,1.044Z" transform="translate(-3.295 -4.614)" fill="#fff"/>
      <path id="Shape-7" data-name="Shape" d="M4.735,25.471H6.206a.735.735,0,1,0,0-1.471H4.735a.735.735,0,1,0,0,1.471Z" transform="translate(-1.059 -7.857)" fill="#fff"/>
      <path id="Shape-8" data-name="Shape" d="M34.212,16.727a.735.735,0,0,0,1.044,0l1.471-1.471a.738.738,0,0,0-1.044-1.044l-1.471,1.471a.735.735,0,0,0,0,1.044Z" transform="translate(-11.206 -4.614)" fill="#fff"/>
      <path id="Shape-9" data-name="Shape" d="M42.206,24H40.735a.735.735,0,0,0,0,1.471h1.471a.735.735,0,0,0,0-1.471Z" transform="translate(-13.185 -7.857)" fill="#fff"/>
      <path id="Shape-10" data-name="Shape" d="M36.177,54H20.735a.735.735,0,1,0,0,1.471H36.177a.735.735,0,0,0,0-1.471Z" transform="translate(-7.26 -17.93)" fill="#fff"/>
      <path id="Shape-11" data-name="Shape" d="M13.559,54H4.735a.735.735,0,1,0,0,1.471h8.824a.735.735,0,1,0,0-1.471Z" transform="translate(-1.059 -17.93)" fill="#fff"/>
      <path id="Shape-12" data-name="Shape" d="M14.295,50H4.735a.735.735,0,0,0,0,1.471h9.559a.735.735,0,0,0,0-1.471Z" transform="translate(-1.059 -16.871)" fill="#fff"/>
      <path id="Shape-13" data-name="Shape" d="M4.735,47.471H8.412a.735.735,0,1,0,0-1.471H4.735a.735.735,0,0,0,0,1.471Z" transform="translate(-1.059 -15.06)" fill="#fff"/>
      <path id="Shape-14" data-name="Shape" d="M4.735,43.471h8.089a.735.735,0,0,0,0-1.471H4.735a.735.735,0,1,0,0,1.471Z" transform="translate(-1.059 -13.75)" fill="#fff"/>
      <path id="Shape-15" data-name="Shape" d="M4.735,39.471h5.883a.735.735,0,1,0,0-1.471H4.735a.735.735,0,1,0,0,1.471Z" transform="translate(-1.059 -12.441)" fill="#fff"/>
      <path id="Shape-16" data-name="Shape" d="M4.735,35.471H6.941a.735.735,0,1,0,0-1.471H4.735a.735.735,0,1,0,0,1.471Z" transform="translate(-1.059 -11.131)" fill="#fff"/>
    </g>
  </g>
</svg>
