<svg id="icon" xmlns="http://www.w3.org/2000/svg" width="39.83" height="30" viewBox="0 0 39.83 30">
  <g id="Group_670" data-name="Group 670" transform="translate(0 0.003)">
    <g id="Group_669" data-name="Group 669">
      <path id="Path_1127" data-name="Path 1127" d="M289.259,90.13a9.2,9.2,0,0,0,6.894,3.047,8.293,8.293,0,0,0,6.032-2.386,8.055,8.055,0,0,0-.024-11.515,9.7,9.7,0,0,0-5.343-2.729c.371-2.652,2.861-5.053,7.415-7.145l.82-.377L301.69,63.18l-.759.362c-9.63,4.6-14.512,11.094-14.512,19.31A10.256,10.256,0,0,0,289.259,90.13Zm11.708-24.749,1.684,2.928c-5.065,2.5-7.632,5.5-7.632,8.94v.736l.776.083a8.043,8.043,0,0,1,5.085,2.331,6.477,6.477,0,0,1,.041,9.253,6.469,6.469,0,0,1-4.768,1.878,7.374,7.374,0,0,1-5.587-2.5,8.6,8.6,0,0,1-2.4-6.182,16.4,16.4,0,0,1,3.346-10.1A26.529,26.529,0,0,1,300.967,65.381Z" transform="translate(-286.419 -63.18)" fill="#523680"/>
    </g>
  </g>
  <g id="Group_672" data-name="Group 672" transform="translate(21.207 0)">
    <g id="Group_671" data-name="Group 671">
      <path id="Path_1128" data-name="Path 1128" d="M2.876,90.138A9.3,9.3,0,0,0,9.8,93.181a8.182,8.182,0,0,0,6-2.39,8.094,8.094,0,0,0-.061-11.51,9.662,9.662,0,0,0-5.279-2.727C10.829,73.9,13.3,71.5,17.815,69.4l.808-.374-3.278-5.85-.766.364C4.9,68.142,0,74.639,0,82.856A10.193,10.193,0,0,0,2.876,90.138ZM14.6,65.387l1.638,2.924c-5.029,2.5-7.577,5.506-7.577,8.942v.734l.774.084A7.98,7.98,0,0,1,14.462,80.4a6.516,6.516,0,0,1,.068,9.258A6.363,6.363,0,0,1,9.8,91.534a7.474,7.474,0,0,1-5.623-2.5,8.532,8.532,0,0,1-2.426-6.179,16.343,16.343,0,0,1,3.361-10.1A26.63,26.63,0,0,1,14.6,65.387Z" transform="translate(0 -63.181)" fill="#523680"/>
    </g>
  </g>
</svg>
