<svg id="quote_icon" data-name="quote icon" xmlns="http://www.w3.org/2000/svg" width="30.004" height="22.599" viewBox="0 0 30.004 22.599">
  <g id="Group_670" data-name="Group 670" transform="translate(0 0.002)">
    <g id="Group_669" data-name="Group 669" transform="translate(0 0)">
      <path id="Path_1127" data-name="Path 1127" d="M288.434,83.482a6.358,6.358,0,0,0,4.891,2.3,5.706,5.706,0,0,0,4.279-1.8,6.334,6.334,0,0,0-.017-8.674A6.749,6.749,0,0,0,293.8,73.25c.264-2,2.03-3.807,5.261-5.382l.582-.284-2.385-4.4-.538.273c-6.832,3.463-10.3,8.357-10.3,14.547A7.993,7.993,0,0,0,288.434,83.482Zm8.306-18.644,1.2,2.206c-3.594,1.883-5.414,4.147-5.414,6.735v.554l.551.062a5.569,5.569,0,0,1,3.607,1.756,5.093,5.093,0,0,1,.029,6.971,4.451,4.451,0,0,1-3.383,1.414,5.1,5.1,0,0,1-3.964-1.88A6.7,6.7,0,0,1,287.66,78a12.861,12.861,0,0,1,2.374-7.612A19.045,19.045,0,0,1,296.74,64.838Z" transform="translate(-286.419 -63.18)" fill="#ff9c1a"/>
    </g>
  </g>
  <g id="Group_672" data-name="Group 672" transform="translate(16.792 0)">
    <g id="Group_671" data-name="Group 671">
      <path id="Path_1128" data-name="Path 1128" d="M2.04,83.488A6.427,6.427,0,0,0,6.952,85.78a5.632,5.632,0,0,0,4.259-1.8,6.365,6.365,0,0,0-.043-8.671,6.73,6.73,0,0,0-3.745-2.054c.26-2,2.012-3.809,5.217-5.385l.573-.282-2.326-4.407-.544.274C3.48,66.918,0,71.813,0,78A7.94,7.94,0,0,0,2.04,83.488Zm8.32-18.645,1.162,2.2c-3.568,1.884-5.375,4.148-5.375,6.736v.553L6.7,74.4a5.529,5.529,0,0,1,3.563,1.756,5.124,5.124,0,0,1,.048,6.974A4.379,4.379,0,0,1,6.952,84.54a5.168,5.168,0,0,1-3.99-1.882A6.646,6.646,0,0,1,1.241,78a12.818,12.818,0,0,1,2.385-7.611A19.11,19.11,0,0,1,10.361,64.843Z" transform="translate(0 -63.181)" fill="#ff9c1a"/>
    </g>
  </g>
</svg>
