<svg xmlns="http://www.w3.org/2000/svg" width="50" height="50" viewBox="0 0 50 50">
  <g id="total-percent-icon" transform="translate(-1071.879 -73.084)">
    <path id="Path_5907" data-name="Path 5907" d="M1177.054,118.928a3.948,3.948,0,1,0-3.949-3.948A3.952,3.952,0,0,0,1177.054,118.928Zm0-6.45a2.5,2.5,0,1,1-2.5,2.5A2.5,2.5,0,0,1,1177.054,112.478Zm8.339,6.938a3.948,3.948,0,1,0,3.948,3.949A3.953,3.953,0,0,0,1185.393,119.416Zm0,6.45a2.5,2.5,0,1,1,2.5-2.5A2.5,2.5,0,0,1,1185.393,125.866Zm2.44-12.528-12.608,12.607-1.023-1.023,12.607-12.607Z" transform="translate(-76.677 -28.618)" fill="#fff"/>
    <path id="Path_5908" data-name="Path 5908" d="M1104.733,76.217a14.178,14.178,0,1,0,14.043,14.177A14.13,14.13,0,0,0,1104.733,76.217Zm0,26.971a12.795,12.795,0,1,1,12.673-12.794A12.749,12.749,0,0,1,1104.733,103.188Zm0-26.971a14.178,14.178,0,1,0,14.043,14.177A14.13,14.13,0,0,0,1104.733,76.217Zm0,26.971a12.795,12.795,0,1,1,12.673-12.794A12.749,12.749,0,0,1,1104.733,103.188Zm.007-30.1A17.325,17.325,0,0,0,1090.9,100.6l-1.028,1.051-1.6-1.618-16.386,16.549,6.439,6.5,16.4-16.542-1.452-1.466.973-1a17,17,0,0,0,10.5,3.638,17.314,17.314,0,0,0,0-34.627Zm-26.422,48.043-4.5-4.543,1.452-1.473,4.508,4.55Zm2.425-2.441-4.508-4.55,9.686-9.779,4.514,4.551Zm10.659-10.754-4.508-4.558,1.37-1.383,1.617,1.625,1.459,1.473.473.484.966.968Zm13.338-1.6a15.656,15.656,0,0,1-10.118-3.721l-.486-.415-1.843,1.909-1.452-1.473,1.87-1.923-.377-.477a15.736,15.736,0,1,1,12.406,6.1Zm-.007-30.111a14.178,14.178,0,1,0,14.043,14.177A14.13,14.13,0,0,0,1104.733,76.217Zm0,26.971a12.795,12.795,0,1,1,12.673-12.794A12.749,12.749,0,0,1,1104.733,103.188Zm0-26.971a14.178,14.178,0,1,0,14.043,14.177A14.13,14.13,0,0,0,1104.733,76.217Zm0,26.971a12.795,12.795,0,1,1,12.673-12.794A12.749,12.749,0,0,1,1104.733,103.188Zm0-26.971a14.178,14.178,0,1,0,14.043,14.177A14.13,14.13,0,0,0,1104.733,76.217Zm0,26.971a12.795,12.795,0,1,1,12.673-12.794A12.749,12.749,0,0,1,1104.733,103.188Z" fill="#fff"/>
  </g>
</svg>
